<svg width="820" height="394" viewBox="0 0 820 394" fill="none" xmlns="http://www.w3.org/2000/svg">
<path d="M0.000854492 172.852V388.29H466.676V244.247H520.387V47.5968H368.109V0H150.652V172.852H0.000854492Z" fill="#8917E1"/>
<path d="M216.565 167.759C211.605 165.197 208.161 161.786 206.241 157.518C204.321 153.25 203.356 148.475 203.356 143.192V142.947H216.324C216.324 146.603 216.961 149.699 218.244 152.218C219.528 154.737 221.603 156.713 224.487 158.13C227.372 159.556 231.29 160.264 236.25 160.264C241.21 160.264 245.292 159.696 248.254 158.559C251.216 157.422 253.317 155.9 254.557 153.984C255.797 152.078 256.417 149.9 256.417 147.46C256.417 145.02 255.858 143.148 254.738 141.854C253.619 140.551 251.457 139.475 248.254 138.626C245.051 137.769 239.97 136.86 233.004 135.88C225.641 134.822 219.854 133.589 215.653 132.163C211.45 130.746 208.307 128.612 206.232 125.761C204.148 122.918 203.115 118.974 203.115 113.936C203.115 108.898 204.432 104.604 207.076 100.826C209.719 97.0473 213.499 94.1174 218.425 92.0446C223.351 89.9719 229.206 88.9309 236.018 88.9309C243.621 88.9309 249.787 90.0244 254.505 92.2194C259.224 94.4149 262.652 97.6246 264.77 101.849C266.888 106.073 267.947 111.4 267.947 117.82H254.979C254.979 113.752 254.281 110.464 252.878 107.945C251.475 105.426 249.373 103.511 246.574 102.216C243.776 100.913 240.332 100.266 236.25 100.266C232.168 100.266 228.965 100.799 226.167 101.849C223.368 102.907 221.181 104.368 219.622 106.24C218.064 108.111 217.28 110.184 217.28 112.458C217.28 115.3 217.796 117.435 218.839 118.86C219.881 120.286 221.956 121.44 225.081 122.332C228.199 123.224 233.202 124.16 240.091 125.14C247.617 126.119 253.498 127.335 257.734 128.796C261.98 130.256 265.174 132.373 267.336 135.137C269.497 137.901 270.574 141.722 270.574 146.603C270.574 151.483 269.532 155.55 267.457 159.284C265.372 163.028 261.79 166.01 256.71 168.249C251.629 170.488 244.801 171.599 236.241 171.599C227.682 171.599 221.517 170.322 216.548 167.759H216.565Z" fill="#FCFBFE"/>
<path d="M415.23 158.183V170.383H357.511V90.1467H414.154V102.339H371.797V123.391H411.941V135.591H371.797V158.183H415.23Z" fill="#FCFBFE"/>
<path d="M349.537 90.1204L323.927 170.375H297.363L271.745 90.1204L287.408 90.1466L308.264 156.818H313.017L333.873 90.1466L349.537 90.1204Z" fill="#FCFBFE"/>
<path d="M439.247 102.339V122.857H477.238V135.05H439.247V170.383H424.961V90.1467H480.416V102.339H439.247Z" fill="#FCFBFE"/>
<path d="M38.2134 302.306C38.2134 299.734 38.4632 297.764 38.9628 296.394C39.4625 294.991 40.4784 293.755 42.0107 292.686C43.5762 291.618 46.0744 290.399 49.5053 289.029C52.5364 287.827 54.7848 286.774 56.2504 285.873C57.7491 284.937 58.7485 284.002 59.2484 283.067C59.7814 282.131 60.0479 280.963 60.0479 279.56C60.0479 278.391 59.7478 277.338 59.1482 276.403C58.5822 275.468 57.6995 274.733 56.5002 274.199C55.3344 273.631 53.9021 273.347 52.2033 273.347C50.3047 273.347 48.6892 273.681 47.3568 274.349C46.0245 274.984 45.0251 275.886 44.3589 277.055C43.6928 278.223 43.3597 279.626 43.3597 281.263C43.3597 281.864 43.3764 282.466 43.4096 283.067C43.4762 283.668 43.5596 284.186 43.6595 284.62H38.7629C38.6964 284.219 38.6298 283.685 38.5631 283.017C38.4965 282.348 38.4632 281.647 38.4632 280.912C38.4632 278.575 38.9795 276.504 40.0121 274.7C41.0447 272.863 42.5935 271.443 44.6588 270.441C46.7573 269.406 49.2887 268.888 52.2533 268.888C55.1179 268.888 57.5327 269.372 59.4978 270.341C61.4636 271.276 62.9287 272.545 63.8951 274.149C64.8609 275.718 65.3438 277.472 65.3438 279.409C65.3438 281.313 64.9776 282.967 64.2447 284.369C63.5455 285.739 62.2631 287.058 60.3976 288.328C58.5321 289.597 55.884 290.916 52.4531 292.286C49.8217 293.321 47.9231 294.123 46.7573 294.69C45.6247 295.259 44.8919 295.759 44.5588 296.193C44.2257 296.628 44.0425 297.162 44.0092 297.797H66.0931V302.306H38.2134ZM86.3597 302.757C83.0956 302.757 80.3475 302.039 78.1158 300.603C75.8836 299.166 74.2186 297.162 73.119 294.59C72.0199 292.019 71.4704 289.046 71.4704 285.672C71.4704 282.299 72.0364 279.359 73.1691 276.854C74.3347 274.315 76.0169 272.362 78.2155 270.992C80.4471 269.589 83.1622 268.888 86.3597 268.888C89.5241 268.888 92.2221 269.589 94.4538 270.992C96.6854 272.362 98.3846 274.315 99.5503 276.854C100.716 279.359 101.299 282.299 101.299 285.672C101.299 289.046 100.732 292.019 99.6004 294.59C98.5008 297.162 96.8357 299.166 94.6035 300.603C92.4055 302.039 89.6573 302.757 86.3597 302.757ZM86.3597 298.298C88.4581 298.298 90.2234 297.78 91.6561 296.745C93.1213 295.709 94.2038 294.256 94.9036 292.386C95.6365 290.482 96.0026 288.244 96.0026 285.672C96.0026 283.134 95.62 280.946 94.8535 279.109C94.1206 277.272 93.0216 275.852 91.5559 274.85C90.1237 273.848 88.3749 273.347 86.3096 273.347C84.2778 273.347 82.5455 273.848 81.1134 274.85C79.6812 275.852 78.5987 277.272 77.8658 279.109C77.133 280.946 76.7668 283.134 76.7668 285.672C76.7668 288.244 77.1165 290.482 77.8157 292.386C78.5156 294.256 79.581 295.709 81.0137 296.745C82.4789 297.78 84.2613 298.298 86.3597 298.298ZM106.426 302.306C106.426 299.734 106.676 297.764 107.176 296.394C107.675 294.991 108.691 293.755 110.223 292.686C111.789 291.618 114.287 290.399 117.718 289.029C120.749 287.827 122.998 286.774 124.463 285.873C125.962 284.937 126.962 284.002 127.461 283.067C127.994 282.131 128.261 280.963 128.261 279.56C128.261 278.391 127.96 277.338 127.361 276.403C126.795 275.468 125.912 274.733 124.713 274.199C123.547 273.631 122.115 273.347 120.416 273.347C118.517 273.347 116.902 273.681 115.569 274.349C114.237 274.984 113.238 275.886 112.572 277.055C111.906 278.223 111.572 279.626 111.572 281.263C111.572 281.864 111.589 282.466 111.623 283.067C111.689 283.668 111.772 284.186 111.872 284.62H106.976C106.909 284.219 106.843 283.685 106.776 283.017C106.709 282.348 106.676 281.647 106.676 280.912C106.676 278.575 107.192 276.504 108.225 274.7C109.258 272.863 110.806 271.443 112.871 270.441C114.97 269.406 117.501 268.888 120.466 268.888C123.331 268.888 125.746 269.372 127.711 270.341C129.676 271.276 131.142 272.545 132.108 274.149C133.073 275.718 133.557 277.472 133.557 279.409C133.557 281.313 133.19 282.967 132.457 284.369C131.758 285.739 130.476 287.058 128.61 288.328C126.745 289.597 124.097 290.916 120.666 292.286C118.034 293.321 116.136 294.123 114.97 294.69C113.838 295.259 113.105 295.759 112.772 296.193C112.439 296.628 112.255 297.162 112.222 297.797H134.306V302.306H106.426Z" fill="#FCFBFE"/>
<path d="M43.3564 323.592H51.4007L71.3366 349.344H71.3862V323.592H76.4827V356.559H70.5867L48.5027 328.001H48.4528V356.559H43.3564V323.592ZM100.848 357.11C97.1165 357.11 93.8524 356.409 91.0542 355.006C88.2565 353.57 86.108 351.566 84.6087 348.994C83.1099 346.389 82.3605 343.366 82.3605 339.926C82.3605 336.619 83.1099 333.696 84.6087 331.158C86.141 328.586 88.3061 326.598 91.1043 325.196C93.902 323.759 97.1501 323.041 100.848 323.041C104.544 323.041 107.792 323.759 110.59 325.196C113.421 326.598 115.586 328.586 117.086 331.158C118.618 333.696 119.384 336.619 119.384 339.926C119.384 343.332 118.635 346.339 117.135 348.944C115.637 351.515 113.488 353.52 110.69 354.956C107.892 356.393 104.611 357.11 100.848 357.11ZM100.848 352.551C103.479 352.551 105.777 352.033 107.742 350.998C109.707 349.929 111.223 348.443 112.289 346.539C113.388 344.635 113.938 342.431 113.938 339.926C113.938 337.52 113.388 335.383 112.289 333.513C111.19 331.642 109.657 330.189 107.692 329.153C105.727 328.118 103.445 327.6 100.848 327.6C98.2491 327.6 95.9674 328.118 94.0022 329.153C92.0371 330.189 90.5047 331.642 89.4056 333.513C88.3396 335.383 87.8067 337.52 87.8067 339.926C87.8067 342.464 88.3396 344.702 89.4056 346.639C90.5047 348.543 92.0371 350.013 94.0022 351.048C95.9674 352.05 98.2491 352.551 100.848 352.551ZM125.231 323.592H134.075L145.017 349.896H145.067L156.059 323.592H164.703V356.559H159.307L159.357 327.5H159.307L147.066 356.559H142.619L130.378 327.5H130.278L130.328 356.559H125.231V323.592ZM172.078 323.592H177.424V356.559H172.078V323.592ZM184.808 323.592H192.852L212.788 349.344H212.838V323.592H217.934V356.559H212.038L189.954 328.001H189.904V356.559H184.808V323.592ZM231.057 348.894L232.805 345.136H250.343L252.141 348.894H231.057ZM241.599 328.252L228.408 356.559H222.763L238.751 323.592H245.096L261.085 356.559H254.84L241.699 328.252H241.599ZM268.766 328.102H256.575V323.592H286.354V328.102H274.162V356.559H268.766V328.102ZM291.328 323.592H296.674V356.559H291.328V323.592ZM321.246 357.11C317.515 357.11 314.251 356.409 311.453 355.006C308.655 353.57 306.506 351.566 305.008 348.994C303.508 346.389 302.759 343.366 302.759 339.926C302.759 336.619 303.508 333.696 305.008 331.158C306.539 328.586 308.705 326.598 311.503 325.196C314.301 323.759 317.548 323.041 321.246 323.041C324.943 323.041 328.191 323.759 330.989 325.196C333.82 326.598 335.985 328.586 337.484 331.158C339.016 333.696 339.782 336.619 339.782 339.926C339.782 343.332 339.033 346.339 337.534 348.944C336.035 351.515 333.887 353.52 331.089 354.956C328.29 356.393 325.01 357.11 321.246 357.11ZM321.246 352.551C323.877 352.551 326.176 352.033 328.141 350.998C330.106 349.929 331.622 348.443 332.688 346.539C333.787 344.635 334.336 342.431 334.336 339.926C334.336 337.52 333.787 335.383 332.688 333.513C331.588 331.642 330.056 330.189 328.091 329.153C326.125 328.118 323.844 327.6 321.246 327.6C318.647 327.6 316.366 328.118 314.401 329.153C312.435 330.189 310.903 331.642 309.804 333.513C308.738 335.383 308.205 337.52 308.205 339.926C308.205 342.464 308.738 344.702 309.804 346.639C310.903 348.543 312.435 350.013 314.401 351.048C316.366 352.05 318.647 352.551 321.246 352.551ZM345.63 323.592H353.674L373.61 349.344H373.66V323.592H378.756V356.559H372.86L350.776 328.001H350.726V356.559H345.63V323.592Z" fill="#FCFBFE"/>
<path d="M152.35 302.5C149.417 302.5 147 301.867 145.1 300.6C143.233 299.333 141.75 297.5 140.65 295.1L145.65 292.5C146.15 294.1 146.9 295.417 147.9 296.45C148.933 297.45 150.45 297.95 152.45 297.95C153.85 297.95 155.033 297.7 156 297.2C157 296.667 157.767 295.933 158.3 295C158.833 294.033 159.1 292.883 159.1 291.55C159.1 290.15 158.85 288.983 158.35 288.05C157.85 287.117 157.133 286.417 156.2 285.95C155.267 285.45 154.1 285.2 152.7 285.2C151.733 285.2 150.833 285.3 150 285.5C149.167 285.7 148.417 286.017 147.75 286.45C147.083 286.85 146.5 287.383 146 288.05L141.6 287.2L143.6 269H162.8V273.6H147.85L146.65 282.9L146.55 283.45H146.65C147.417 282.617 148.4 281.967 149.6 281.5C150.833 281.033 152.283 280.8 153.95 280.8C156.083 280.8 157.917 281.25 159.45 282.15C160.983 283.017 162.183 284.233 163.05 285.8C163.917 287.367 164.35 289.183 164.35 291.25C164.35 293.05 164.05 294.65 163.45 296.05C162.85 297.45 162 298.633 160.9 299.6C159.8 300.567 158.517 301.3 157.05 301.8C155.617 302.267 154.05 302.5 152.35 302.5Z" fill="white"/>
</svg>
